<svg width="22" height="22" viewBox="0 0 22 22" fill="none" xmlns="http://www.w3.org/2000/svg">
<path d="M20.1702 7.06175C20.0859 6.9399 19.9733 6.84031 19.842 6.7715C19.7108 6.70269 19.5648 6.66672 19.4167 6.66667H6.88858L5.83075 4.1275C5.69205 3.79312 5.45718 3.50746 5.15592 3.30673C4.85467 3.106 4.50059 2.99925 4.13858 3H2V4.83334H4.13858L8.48725 15.2696C8.5569 15.4366 8.67441 15.5792 8.82497 15.6795C8.97553 15.7798 9.15241 15.8334 9.33333 15.8333H16.6667C17.0489 15.8333 17.3908 15.5959 17.5256 15.2393L20.2756 7.906C20.3276 7.76724 20.3451 7.61794 20.3268 7.47091C20.3084 7.32387 20.2547 7.18348 20.1702 7.06175ZM16.0314 14H9.94475L7.65308 8.5H18.0939L16.0314 14Z" fill="white"/>
<path d="M9.625 19.25C10.3844 19.25 11 18.6344 11 17.875C11 17.1156 10.3844 16.5 9.625 16.5C8.86561 16.5 8.25 17.1156 8.25 17.875C8.25 18.6344 8.86561 19.25 9.625 19.25Z" fill="white"/>
<path d="M16.0417 19.25C16.801 19.25 17.4167 18.6344 17.4167 17.875C17.4167 17.1156 16.801 16.5 16.0417 16.5C15.2823 16.5 14.6667 17.1156 14.6667 17.875C14.6667 18.6344 15.2823 19.25 16.0417 19.25Z" fill="white"/>
</svg>
